# xmcd
# 
# Track frame offsets:
#     150
#     18156
#     36037
#     54995
#     74500
#     90938
#     110341
#     129277
#     144458
#     161544
#     183065
# 
# Disc length: 2701
# 
# Revision: 2
# Processed by: cddbd v1.5.2PL0 Copyright (c) Steve Scherf et al.
# Submitted via: fre:ac v1.0.31
# 
DISCID=7f0a8b0b
DTITLE=郭富城 - 空手道
DYEAR=2002
DGENRE=Pop
TTITLE0=十指緊扣
TTITLE1=臨睡吻你一次
TTITLE2=無常
TTITLE3=剛柔流
TTITLE4=我勇敢
TTITLE5=掌紋
TTITLE6=盜亦有道
TTITLE7=一個人的佳節
TTITLE8=麻瓜傻瓜
TTITLE9=降龍十八掌
TTITLE10=祈求
EXTD=
EXTT0=
EXTT1=
EXTT2=
EXTT3=
EXTT4=
EXTT5=
EXTT6=
EXTT7=
EXTT8=
EXTT9=
EXTT10=
PLAYORDER=
